<svg viewBox="0 0 306 60" fill="none" xmlns="http://www.w3.org/2000/svg">
   <path d="M28 23C28 30.732 21.732 37 14 37C6.26801 37 0 30.732 0 23C0 15.268 6.26801 9 14 9C21.732 9 28 15.268 28 23Z" fill="#FF0808" />
   <path d="M56.4031 46.0169C53.6341 46.0169 51.0994 45.678 48.7991 45C46.5413 44.322 44.5178 43.3263 42.7286 42.0127C40.982 40.6992 39.4058 39.1102 38 37.2458L44.0066 30.4449C46.094 33.3263 48.1601 35.2966 50.2048 36.3559C52.2922 37.3729 54.55 37.8814 56.9782 37.8814C58.2988 37.8814 59.4703 37.7119 60.4927 37.3729C61.5577 36.9915 62.3884 36.4619 62.9848 35.7839C63.5812 35.1059 63.8794 34.3008 63.8794 33.3686C63.8794 32.6907 63.7303 32.0763 63.4321 31.5254C63.1339 30.9322 62.7079 30.4237 62.1541 30C61.6003 29.5339 60.94 29.1314 60.1732 28.7924C59.4064 28.411 58.5544 28.0932 57.6172 27.839C56.68 27.5424 55.6576 27.3093 54.55 27.1398C52.1644 26.589 50.077 25.9322 48.2879 25.1695C46.4987 24.3644 45.0077 23.3898 43.8149 22.2458C42.6221 21.0593 41.7275 19.7246 41.1311 18.2415C40.5773 16.7585 40.3004 15.0847 40.3004 13.2203C40.3004 11.3136 40.7264 9.55509 41.5784 7.94492C42.4304 6.29238 43.6019 4.87288 45.0929 3.68644C46.6265 2.5 48.3731 1.58898 50.3326 0.953389C52.3348 0.317797 54.4435 0 56.6587 0C59.3851 0 61.7707 0.317797 63.8155 0.953389C65.8603 1.54661 67.6282 2.41526 69.1192 3.55932C70.6528 4.70339 71.9308 6.1017 72.9532 7.75424L66.8827 13.6017C65.9881 12.4153 65.0083 11.4195 63.9433 10.6144C62.9209 9.80932 61.792 9.2161 60.5566 8.83475C59.3638 8.41102 58.1284 8.19915 56.8504 8.19915C55.4446 8.19915 54.2305 8.38983 53.2081 8.77119C52.1857 9.11017 51.3763 9.61865 50.7799 10.2966C50.2262 10.9746 49.9492 11.8008 49.9492 12.7754C49.9492 13.5381 50.141 14.2161 50.5243 14.8093C50.9077 15.4025 51.4615 15.9322 52.1857 16.3983C52.9099 16.822 53.7832 17.2034 54.8056 17.5424C55.828 17.8814 56.9569 18.178 58.1923 18.4322C60.5353 18.8983 62.644 19.5127 64.5184 20.2754C66.3928 21.0381 67.9903 21.9703 69.3109 23.072C70.6741 24.1314 71.7178 25.4025 72.442 26.8856C73.1662 28.3263 73.5283 29.9576 73.5283 31.7797C73.5283 34.7881 72.8041 37.3517 71.3557 39.4703C69.9073 41.589 67.9051 43.2203 65.3491 44.3644C62.7931 45.4661 59.8111 46.0169 56.4031 46.0169Z" fill="white" />
   <path d="M84.1905 45.3814V3.24153H93.2643V45.3814H84.1905ZM77.8645 19.8305V11.7585H100.165V19.8305H77.8645Z" fill="white" />
   <path d="M106.08 45.3814V11.7585H114.834L115.153 22.5636L113.62 20.339C114.131 18.6017 114.962 17.0339 116.112 15.6356C117.262 14.1949 118.604 13.072 120.138 12.267C121.714 11.4619 123.354 11.0593 125.058 11.0593C125.782 11.0593 126.485 11.1229 127.167 11.25C127.848 11.3771 128.423 11.5254 128.892 11.6949L126.464 21.6102C125.953 21.3559 125.335 21.1441 124.611 20.9746C123.886 20.7627 123.141 20.6568 122.374 20.6568C121.352 20.6568 120.393 20.8475 119.499 21.2288C118.647 21.5678 117.901 22.0763 117.262 22.7542C116.623 23.3898 116.112 24.1525 115.729 25.0424C115.388 25.9322 115.217 26.9068 115.217 27.9661V45.3814H106.08Z" fill="white" />
   <path d="M148.702 46.0169C145.038 46.0169 141.843 45.2754 139.117 43.7924C136.39 42.3093 134.26 40.2754 132.727 37.6907C131.193 35.1059 130.426 32.1398 130.426 28.7924C130.426 26.2076 130.852 23.8347 131.704 21.6737C132.556 19.5127 133.749 17.6483 135.283 16.0805C136.816 14.4703 138.627 13.2415 140.714 12.3941C142.844 11.5042 145.145 11.0593 147.616 11.0593C149.916 11.0593 152.046 11.4831 154.005 12.3305C155.965 13.1356 157.648 14.3008 159.054 15.8263C160.502 17.3093 161.61 19.0678 162.376 21.1017C163.143 23.1356 163.484 25.3602 163.399 27.7754L163.335 30.572H136.177L134.708 25.0424H155.859L154.836 26.1864V24.7881C154.751 23.6441 154.368 22.6059 153.686 21.6737C153.047 20.7415 152.216 20.0212 151.194 19.5127C150.172 19.0042 149.021 18.75 147.743 18.75C145.869 18.75 144.271 19.1102 142.951 19.8305C141.673 20.5508 140.693 21.6102 140.011 23.0085C139.33 24.4068 138.989 26.1017 138.989 28.0932C138.989 30.1271 139.415 31.8856 140.267 33.3686C141.162 34.8517 142.397 36.0169 143.973 36.8644C145.592 37.6695 147.488 38.072 149.66 38.072C151.151 38.072 152.514 37.839 153.75 37.3729C154.985 36.9068 156.306 36.1017 157.712 34.9576L162.057 40.9958C160.821 42.0975 159.458 43.0297 157.967 43.7924C156.476 44.5127 154.943 45.0636 153.366 45.4449C151.79 45.8263 150.235 46.0169 148.702 46.0169Z" fill="white" />
   <path d="M182.756 46.0169C179.945 46.0169 177.41 45.2542 175.152 43.7288C172.895 42.2034 171.105 40.1271 169.785 37.5C168.464 34.8729 167.804 31.8644 167.804 28.4746C167.804 25.0847 168.464 22.0975 169.785 19.5127C171.148 16.8856 172.98 14.8305 175.28 13.3475C177.58 11.822 180.2 11.0593 183.14 11.0593C184.801 11.0593 186.313 11.3136 187.677 11.822C189.082 12.2881 190.297 12.9449 191.319 13.7924C192.384 14.6398 193.279 15.6144 194.003 16.7161C194.727 17.8178 195.238 19.0042 195.536 20.2754L193.619 19.9576V11.7585H202.629V45.3814H193.492V37.3093L195.536 37.1186C195.196 38.3051 194.642 39.428 193.875 40.4873C193.108 41.5466 192.15 42.5 190.999 43.3475C189.892 44.1525 188.635 44.8093 187.229 45.3178C185.824 45.7839 184.333 46.0169 182.756 46.0169ZM185.248 38.1992C186.952 38.1992 188.443 37.7966 189.721 36.9915C190.999 36.1864 191.979 35.0636 192.661 33.6229C193.385 32.1398 193.747 30.4237 193.747 28.4746C193.747 26.5678 193.385 24.8941 192.661 23.4534C191.979 22.0127 190.999 20.8898 189.721 20.0847C188.443 19.2373 186.952 18.8136 185.248 18.8136C183.587 18.8136 182.117 19.2373 180.839 20.0847C179.604 20.8898 178.624 22.0127 177.9 23.4534C177.176 24.8941 176.814 26.5678 176.814 28.4746C176.814 30.4237 177.176 32.1398 177.9 33.6229C178.624 35.0636 179.604 36.1864 180.839 36.9915C182.117 37.7966 183.587 38.1992 185.248 38.1992Z" fill="white" />
   <path d="M211.663 45.3814V11.7585H220.417L220.608 18.178L219.267 18.4322C219.735 17.3305 220.353 16.3347 221.12 15.4449C221.886 14.5551 222.781 13.7924 223.803 13.1568C224.868 12.5212 225.976 12.0339 227.126 11.6949C228.276 11.3136 229.427 11.1229 230.577 11.1229C232.323 11.1229 233.9 11.3983 235.305 11.9492C236.711 12.5 237.904 13.3686 238.884 14.5551C239.864 15.6992 240.63 17.2246 241.184 19.1314L239.778 19.0042L240.226 17.9873C240.779 16.9703 241.482 16.0593 242.334 15.2542C243.186 14.4068 244.145 13.6864 245.21 13.0932C246.275 12.4576 247.382 11.9703 248.533 11.6314C249.683 11.2924 250.812 11.1229 251.919 11.1229C254.561 11.1229 256.754 11.6525 258.501 12.7119C260.248 13.7288 261.547 15.2754 262.399 17.3517C263.294 19.428 263.741 21.9703 263.741 24.9788V45.3814H254.667V25.6144C254.667 24.089 254.454 22.839 254.028 21.8644C253.602 20.8898 252.984 20.1695 252.175 19.7034C251.366 19.1949 250.322 18.9407 249.044 18.9407C248.064 18.9407 247.148 19.1102 246.296 19.4492C245.487 19.7458 244.763 20.1907 244.124 20.7839C243.527 21.3347 243.059 21.9915 242.718 22.7542C242.377 23.5169 242.207 24.3644 242.207 25.2966V45.3814H233.133V25.5508C233.133 24.1525 232.899 22.9661 232.43 21.9915C232.004 20.9746 231.386 20.2119 230.577 19.7034C229.767 19.1949 228.766 18.9407 227.574 18.9407C226.594 18.9407 225.678 19.1102 224.826 19.4492C224.016 19.7458 223.314 20.1907 222.717 20.7839C222.121 21.3347 221.631 21.9915 221.247 22.7542C220.907 23.5169 220.736 24.3432 220.736 25.2331V45.3814H211.663Z" fill="white" />
   <path d="M276.798 60L284.21 42.7119L284.338 47.9237L267.852 11.7585H278.14L286.383 31.1441C286.724 31.8644 287.043 32.7119 287.341 33.6864C287.682 34.6186 287.959 35.5297 288.172 36.4195L286.638 37.0551C286.894 36.3347 287.192 35.5085 287.533 34.5763C287.874 33.6441 288.215 32.6483 288.555 31.589L295.648 11.7585H306L291.814 45.3814L285.999 60H276.798Z" fill="white" />
</svg>
