<svg width="248" height="50" viewBox="0 0 248 50" fill="none" xmlns="http://www.w3.org/2000/svg">
   <g clip-path="url(#clip0_929_3777)">
      <path d="M83.1872 22.2022C81.7525 21.6656 79.8405 21.2369 77.4482 21.0242L72.4525 20.5432C71.0177 20.3829 70.0082 20.1669 69.4758 19.7938C68.9435 19.4208 68.6773 18.9365 68.6773 18.3475C68.6773 17.5425 69.1545 16.9012 70.0601 16.5281C70.9625 16.0995 72.2382 15.8868 73.7801 15.8868C74.9487 15.8868 75.9582 15.9948 76.7568 16.2631C77.6072 16.4758 78.2435 16.8521 78.7239 17.2808C79.2011 17.7094 79.4672 18.2461 79.5744 18.8351H86.6411C86.5339 17.176 85.9496 15.6741 84.8362 14.4437C83.7196 13.1577 82.2329 12.1957 80.3729 11.4987C78.5129 10.8017 76.3348 10.481 73.9457 10.481C71.5566 10.481 69.3233 10.8017 67.4633 11.3907C65.6033 12.0321 64.1685 12.945 63.159 14.123C62.1494 15.3534 61.6171 16.7997 61.6171 18.5668C61.6171 20.7101 62.4156 22.4215 63.9543 23.7075C65.4961 24.9935 68.0443 25.7952 71.4981 26.0635L76.1725 26.4921C77.7663 26.6525 78.8278 26.9208 79.4121 27.2971C79.9444 27.6734 80.2625 28.1544 80.2625 28.7958C80.2625 29.6531 79.7853 30.2945 78.7758 30.7232C77.7663 31.1518 76.4387 31.3645 74.7377 31.3645C73.5172 31.3645 72.4525 31.2042 71.5501 30.9359C70.6477 30.6675 69.9043 30.2389 69.3719 29.7579C68.8396 29.2212 68.5215 28.6322 68.4144 27.9385H61.3477C61.3996 29.7055 61.9839 31.2598 63.1005 32.5982C64.2172 33.9365 65.7558 34.9542 67.7229 35.7035C69.6901 36.4529 71.9721 36.8292 74.5754 36.8292C77.1788 36.8292 79.3049 36.4529 81.2169 35.7035C83.1288 34.9542 84.6188 33.9365 85.625 32.6505C86.6865 31.3122 87.2189 29.7579 87.2189 27.9908C87.2189 26.5445 86.9007 25.3665 86.2613 24.3488C85.625 23.5438 84.6155 22.7945 83.1807 22.2055" fill="white" />
      <path d="M107.042 29.2703C106.669 30.0196 106.085 30.6086 105.397 30.985C104.705 31.4136 103.91 31.6263 103.004 31.6263C102.099 31.6263 101.199 31.4136 100.401 30.985C99.5504 30.5563 98.8589 29.9673 98.2227 29.2703C97.5865 28.5209 97.1061 27.6636 96.788 26.7539C97.1061 25.7886 97.5865 24.9346 98.2227 24.1819C98.8589 23.4326 99.5504 22.8436 100.401 22.4149C101.251 21.9863 102.102 21.7736 103.004 21.7736C103.907 21.7736 104.705 21.9863 105.397 22.4149C106.088 22.8436 106.672 23.4326 107.042 24.1819C107.416 24.9313 107.627 25.7886 107.627 26.7539C107.627 27.7192 107.416 28.5733 107.042 29.2703ZM110.016 17.8109C108.581 16.9535 106.935 16.5249 105.075 16.5249C103.215 16.5249 101.621 16.9535 100.187 17.8109C98.9109 18.5602 97.8494 19.5779 96.999 20.8639V17.1139H90.1465V42.019H96.999V32.6473C97.8494 33.9332 98.9109 34.9509 100.187 35.7003C101.621 36.5576 103.215 36.9863 105.075 36.9863C106.935 36.9863 108.581 36.5576 110.016 35.7003C111.45 34.8429 112.567 33.6649 113.31 32.1106C114.109 30.5563 114.479 28.7893 114.479 26.8096C114.479 24.8298 114.106 22.9548 113.31 21.4529C112.567 19.8462 111.45 18.6682 110.016 17.8109Z" fill="white" />
      <path d="M133.605 29.4863C133.18 30.2356 132.596 30.8246 131.8 31.2533C131.005 31.6819 130.047 31.8423 128.931 31.8423C127.814 31.8423 126.86 31.6296 126.061 31.2533C125.263 30.8246 124.627 30.2356 124.201 29.4863C123.776 28.7369 123.565 27.8272 123.565 26.7539C123.565 25.6806 123.776 24.7709 124.201 24.0216C124.627 23.2723 125.263 22.6832 126.061 22.3069C126.86 21.8783 127.814 21.7179 128.931 21.7179C130.047 21.7179 131.002 21.9306 131.8 22.3069C132.599 22.7356 133.183 23.2723 133.605 24.0216C134.03 24.7709 134.241 25.6806 134.241 26.7539C134.241 27.8272 134.03 28.7369 133.605 29.4863ZM135.306 17.8109C133.446 16.9535 131.32 16.5249 128.879 16.5249C126.438 16.5249 124.256 16.9535 122.452 17.8109C120.592 18.6682 119.212 19.8462 118.147 21.4005C117.138 22.9548 116.605 24.7219 116.605 26.7572C116.605 28.7925 117.138 30.5596 118.147 32.0583C119.157 33.6126 120.592 34.7906 122.452 35.6479C124.256 36.5052 126.438 36.9339 128.879 36.9339C131.32 36.9339 133.449 36.5052 135.306 35.6479C137.166 34.7906 138.601 33.6126 139.61 32.0583C140.62 30.5039 141.152 28.7369 141.152 26.7016C141.152 24.6662 140.62 22.8992 139.61 21.3449C138.601 19.8462 137.166 18.6682 135.306 17.8109Z" fill="white" />
      <path d="M156.613 31.6819C155.126 31.6819 154.117 31.4136 153.584 30.8246C153 30.2356 152.734 29.2703 152.734 27.8796V22.2022H160.755V17.1139H152.734V11.9175H148.855L145.878 17.6473L141.999 19.2539V22.2546H145.878V28.8973C145.878 30.5563 146.196 32.0026 146.836 33.1806C147.472 34.411 148.481 35.3763 149.812 36.0177C151.143 36.659 152.893 36.983 155.019 36.983C156.188 36.983 157.304 36.875 158.421 36.6623C159.538 36.4496 160.388 36.2336 161.076 35.9653V30.769C160.492 31.0373 159.8 31.25 159.057 31.4103C158.421 31.5707 157.57 31.6787 156.613 31.6787" fill="white" />
      <path d="M164.368 36.394H171.328V27.3429H185.994V21.3973H171.328V16.9535H186.63V11.0602H164.368V36.394Z" fill="white" />
      <path d="M193.164 8.49149C191.995 8.49149 191.038 8.81217 190.294 9.40117C189.551 9.99018 189.178 10.8475 189.178 11.8652C189.178 12.8828 189.551 13.6845 190.294 14.2768C191.038 14.8658 191.995 15.1865 193.164 15.1865C194.333 15.1865 195.394 14.8658 196.085 14.2768C196.829 13.6878 197.202 12.8828 197.202 11.8652C197.202 10.8475 196.829 9.99018 196.085 9.40117C195.394 8.81217 194.384 8.49149 193.164 8.49149Z" fill="white" />
      <path d="M189.766 16.7932V36.394H196.618V16.7932L193.219 17.4869L189.766 16.7932Z" fill="white" />
      <path d="M219.038 25.0916C217.763 24.6106 216.01 24.2866 213.832 24.1263L209.368 23.8056C208.307 23.6976 207.563 23.5373 207.19 23.3246C206.817 23.1119 206.606 22.788 206.606 22.4149C206.606 21.9339 206.924 21.5576 207.563 21.2893C208.2 21.0209 209.157 20.8606 210.378 20.8606C211.439 20.8606 212.29 20.9686 212.981 21.1813C213.672 21.394 214.15 21.7179 214.575 22.0386C214.948 22.4149 215.211 22.788 215.318 23.2166H222.278C222.119 21.8783 221.534 20.7003 220.525 19.6826C219.515 18.6649 218.188 17.9156 216.487 17.3266C214.786 16.7376 212.874 16.4692 210.748 16.4692C208.622 16.4692 206.71 16.7376 205.064 17.2186C203.47 17.6996 202.194 18.4489 201.292 19.3619C200.39 20.3272 199.909 21.5576 199.909 23.0039C199.909 24.074 200.175 25.0393 200.76 25.8966C201.344 26.7539 202.302 27.4509 203.629 27.9319C204.957 28.4686 206.765 28.7893 208.995 28.9496L212.397 29.2179C213.673 29.3259 214.627 29.4863 215.159 29.699C215.692 29.9116 215.958 30.2356 215.958 30.6643C215.958 31.2009 215.584 31.6296 214.896 31.8946C214.208 32.1597 213.143 32.3233 211.816 32.3233C210.754 32.3233 209.849 32.2153 209.105 32.055C208.362 31.8423 207.722 31.5739 207.3 31.1976C206.823 30.8213 206.557 30.3927 206.398 29.8593H199.438C199.49 31.2533 200.023 32.4836 201.032 33.5537C202.042 34.6237 203.425 35.4287 205.229 36.0177C207.034 36.6067 209.109 36.875 211.498 36.875C213.887 36.875 215.802 36.6067 217.448 36.07C219.093 35.5334 220.369 34.784 221.272 33.7664C222.174 32.7487 222.599 31.5183 222.599 30.0164C222.599 28.8907 222.333 27.873 221.801 27.0157C221.268 26.2664 220.314 25.6217 219.038 25.0883" fill="white" />
      <path d="M247.039 20.7559C246.347 19.4175 245.338 18.3442 244.062 17.5949C242.787 16.8455 241.193 16.4692 239.333 16.4692C237.791 16.4692 236.411 16.8455 235.136 17.5393C234.074 18.1283 233.116 19.0379 232.321 20.1112V10.3109H225.469V36.394H232.321V27.0746C232.321 26.0569 232.48 25.1996 232.854 24.4502C233.227 23.7009 233.756 23.1119 234.447 22.7356C235.139 22.3069 235.989 22.1466 236.892 22.1466C238.275 22.1466 239.284 22.5229 240.027 23.2722C240.771 24.0216 241.144 25.1472 241.144 26.5936V36.394H247.996V25.5759C248.048 23.7565 247.73 22.1466 247.039 20.7559Z" fill="white" />
      <path d="M33.4021 0H16.1979C7.30367 0 0 7.32984 0 16.3285V33.6715C0 42.6374 7.2712 50 16.1979 50H33.4021C42.2963 50 49.6 42.6702 49.6 33.6715V16.3285C49.6 7.32984 42.2963 0 33.4021 0Z" fill="#FFBD00" />
      <path d="M32.6235 20.9097C32.5911 21.2369 32.4612 22.2186 32.3638 22.5785V22.6112C31.4225 26.5379 28.2738 29.6466 24.8329 32.3953C21.3596 29.6466 18.2109 26.5052 17.302 22.6112V22.5785C17.2047 22.2186 17.0748 21.2369 17.0424 20.9097V20.5824C17.0424 16.2304 20.5481 12.6963 24.8654 12.6963C29.1827 12.6963 32.6884 16.2304 32.6884 20.5824V20.9097H32.6235ZM24.8005 9.16229C18.568 9.16229 13.4717 14.267 13.4717 20.5824V20.9751C13.4717 21.2369 13.6664 22.7421 13.8287 23.462C14.9324 28.0759 18.1785 31.5445 21.8465 34.5877L17.2047 37.9581L19.2497 40.8377L24.768 36.8455L29.767 40.7722L31.9094 37.9908L27.657 34.6204C31.3575 31.5772 34.6685 28.0759 35.7722 23.4293C35.967 22.7094 36.1293 21.2369 36.1293 20.9424V20.5497C36.1293 14.267 31.0654 9.16229 24.8005 9.16229Z" fill="black" />
      <path d="M26.683 19.8298C27.6243 20.4188 28.8579 20.1243 29.4421 19.2081C30.0264 18.2592 29.7343 17.0157 28.8254 16.4267C27.884 15.8377 26.6505 16.1322 26.0662 17.0484C25.4819 17.9974 25.7741 19.2408 26.683 19.8298Z" fill="black" />
   </g>
   <defs>
      <clipPath id="clip0_929_3777">
         <rect width="248" height="50" fill="white" />
      </clipPath>
   </defs>
</svg>
